<?xml version="1.0" encoding="utf-8"?>
<!-- Generator: Adobe Illustrator 17.0.0, SVG Export Plug-In . SVG Version: 6.00 Build 0)  -->
<!DOCTYPE svg PUBLIC "-//W3C//DTD SVG 1.1//EN" "http://www.w3.org/Graphics/SVG/1.1/DTD/svg11.dtd">
<svg version="1.1" id="Layer_1" xmlns="http://www.w3.org/2000/svg" xmlns:xlink="http://www.w3.org/1999/xlink" x="0px" y="0px"
	 width="117px" height="30px" viewBox="0 0 117 30" enable-background="new 0 0 117 30" xml:space="preserve">
<g>
	<path d="M1,9.793c1.464-0.561,2.843-0.842,4.137-0.842c0.708,0,1.373,0.104,1.995,0.311c0.622,0.208,1.153,0.531,1.593,0.97
		c1.049-0.854,2.172-1.281,3.368-1.281c0.586,0,1.141,0.11,1.666,0.33c0.524,0.22,0.989,0.549,1.391,0.989
		c0.403,0.439,0.726,0.988,0.97,1.647c0.243,0.659,0.366,1.428,0.366,2.307v10.019l1.357-1.369l2.054,1.369l-4.792,4.824
		l-4.792-4.824l2.054-1.369l1.373,1.369V14.15c0-0.879-0.195-1.55-0.586-2.014c-0.391-0.463-0.879-0.695-1.464-0.695
		c-0.293,0-0.598,0.073-0.915,0.22c-0.318,0.147-0.611,0.379-0.879,0.696c0.146,0.562,0.22,1.184,0.22,1.867v5.528H7.371v-5.565
		c0-0.854-0.134-1.525-0.403-2.014c-0.269-0.488-0.794-0.732-1.574-0.732c-0.489,0-1.038,0.11-1.648,0.33v14.535H1V9.793z"/>
	<path d="M23.553,26.306V10.233c2.49-0.854,5.003-1.281,7.542-1.281c0.781,0,1.525,0.031,2.233,0.091
		c0.708,0.061,1.489,0.189,2.343,0.384L35.123,12.1c-0.781-0.22-1.471-0.36-2.068-0.421c-0.599-0.06-1.251-0.091-1.959-0.091
		c-1.489,0-3.002,0.208-4.54,0.622v14.096H23.553z"/>
	<path d="M48.486,16.97c0.659,0.488,1.403,1.105,2.233,1.849c0.83,0.745,1.653,1.544,2.472,2.398
		c0.818,0.855,1.592,1.727,2.325,2.618c0.732,0.891,1.318,1.715,1.757,2.471h-3.588c-0.464-0.756-1.037-1.531-1.72-2.325
		c-0.684-0.793-1.41-1.556-2.179-2.288c-0.769-0.732-1.538-1.403-2.307-2.014c-0.769-0.61-1.459-1.122-2.068-1.538v8.165h-3.039
		V1.446l3.039-0.512V16.42c1.342-1.172,2.685-2.337,4.027-3.496c1.342-1.159,2.55-2.361,3.625-3.606h3.551
		c-1.049,1.245-2.313,2.526-3.789,3.844C51.348,14.48,49.902,15.749,48.486,16.97z"/>
	<path d="M72.577,1.446l3.039-0.512V25.83c-0.659,0.195-1.501,0.391-2.527,0.586c-1.025,0.195-2.221,0.293-3.588,0.293
		c-1.22,0-2.331-0.208-3.332-0.622c-1.001-0.415-1.855-1.007-2.563-1.776c-0.708-0.769-1.257-1.703-1.647-2.801
		c-0.391-1.099-0.586-2.331-0.586-3.698c0-1.318,0.164-2.52,0.494-3.606c0.33-1.086,0.811-2.019,1.446-2.801
		c0.635-0.781,1.397-1.391,2.288-1.831c0.891-0.439,1.909-0.659,3.057-0.659c0.903,0,1.697,0.11,2.38,0.33
		c0.683,0.22,1.195,0.452,1.537,0.696V1.446z M72.577,12.906c-0.342-0.317-0.842-0.616-1.501-0.897
		c-0.659-0.28-1.343-0.421-2.05-0.421c-0.806,0-1.496,0.159-2.069,0.476c-0.574,0.317-1.043,0.751-1.409,1.3
		c-0.366,0.549-0.635,1.208-0.806,1.977c-0.171,0.769-0.256,1.593-0.256,2.472c0,1.977,0.464,3.503,1.391,4.577
		c0.927,1.074,2.135,1.611,3.624,1.611c0.756,0,1.397-0.037,1.922-0.11c0.524-0.073,0.909-0.147,1.153-0.22V12.906z"/>
	<path d="M92.605,26.306c-0.366-0.83-0.684-1.586-0.952-2.27c-0.269-0.683-0.53-1.366-0.787-2.05
		c-0.257-0.683-0.513-1.397-0.769-2.142c-0.256-0.744-0.555-1.593-0.897-2.545c-0.342,0.952-0.647,1.8-0.915,2.545
		c-0.269,0.745-0.531,1.459-0.787,2.142c-0.256,0.684-0.525,1.367-0.806,2.05c-0.281,0.684-0.604,1.441-0.97,2.27h-2.27
		c-0.684-3.002-1.251-5.974-1.703-8.915c-0.452-2.941-0.787-5.632-1.007-8.073h2.856c0.073,0.952,0.152,1.885,0.238,2.801
		c0.085,0.915,0.189,1.874,0.311,2.874c0.122,1.001,0.262,2.087,0.421,3.258c0.159,1.172,0.335,2.49,0.531,3.954
		c0.39-0.976,0.719-1.831,0.989-2.563c0.268-0.732,0.512-1.428,0.732-2.087c0.22-0.659,0.433-1.33,0.641-2.014
		c0.207-0.683,0.433-1.452,0.677-2.306h2.27c0.243,0.855,0.463,1.624,0.658,2.306c0.195,0.684,0.403,1.355,0.623,2.014
		s0.451,1.354,0.695,2.087c0.244,0.732,0.549,1.574,0.915,2.526c0.22-1.342,0.415-2.587,0.586-3.735
		c0.17-1.147,0.317-2.227,0.44-3.24c0.122-1.012,0.231-1.995,0.33-2.947c0.097-0.952,0.183-1.928,0.256-2.929h2.746
		c-0.123,1.221-0.269,2.526-0.44,3.917c-0.171,1.391-0.378,2.819-0.622,4.284c-0.244,1.464-0.512,2.947-0.806,4.448
		c-0.293,1.501-0.598,2.947-0.915,4.339H92.605z"/>
	<path d="M102.783,9.793c1.098-0.268,2.191-0.476,3.277-0.622c1.086-0.146,2.105-0.22,3.057-0.22c2.27,0,3.985,0.586,5.144,1.757
		C115.42,11.88,116,13.76,116,16.347v9.959h-3.002v-9.409c0-1.099-0.098-1.989-0.293-2.673c-0.195-0.683-0.47-1.214-0.824-1.593
		c-0.354-0.378-0.781-0.641-1.281-0.787c-0.501-0.146-1.043-0.22-1.629-0.22c-0.489,0-1.007,0.031-1.557,0.091
		c-0.549,0.061-1.08,0.141-1.592,0.238v14.352h-3.039V9.793z"/>
</g>
<g>
</g>
<g>
</g>
<g>
</g>
<g>
</g>
<g>
</g>
<g>
</g>
</svg>
